<svg width="293" height="224" viewBox="0 0 293 224" fill="none" xmlns="http://www.w3.org/2000/svg">
<rect x="195.333" width="97.6667" height="223.238" fill="#3C4CA0"/>
<rect x="97.6665" width="97.6667" height="223.238" fill="white"/>
<rect width="97.6667" height="223.238" fill="#2A2A2A"/>
<rect x="200.7" y="6.43951" width="8.58608" height="4.29304" rx="2.14652" fill="#D2654D"/>
<rect x="217.872" y="23.6116" width="8.58608" height="4.29304" rx="2.14652" fill="#D2654D"/>
<rect x="217.872" y="57.956" width="8.58608" height="4.29304" rx="2.14652" fill="#D2654D"/>
<rect x="209.286" y="100.886" width="8.58608" height="4.29304" rx="2.14652" fill="#D2654D"/>
<rect x="209.286" y="135.231" width="8.58608" height="4.29304" rx="2.14652" fill="#D2654D"/>
<rect x="217.872" y="160.989" width="8.58608" height="4.29304" rx="2.14652" fill="#D2654D"/>
<rect x="217.872" y="143.817" width="8.58608" height="4.29304" rx="2.14652" fill="#D2654D"/>
<rect x="217.872" y="178.161" width="8.58608" height="4.29304" rx="2.14652" fill="#D2654D"/>
<rect x="217.872" y="195.333" width="8.58608" height="4.29304" rx="2.14652" fill="#D2654D"/>
<rect x="209.286" y="203.919" width="8.58608" height="4.29304" rx="2.14652" fill="#D2654D"/>
<rect x="200.7" y="212.505" width="8.58608" height="4.29304" rx="2.14652" fill="#D2654D"/>
<rect x="217.872" y="75.1281" width="8.58608" height="4.29304" rx="2.14652" fill="#D2654D"/>
<rect x="209.286" y="83.7142" width="8.58608" height="4.29304" rx="2.14652" fill="#D2654D"/>
<rect x="209.286" y="118.058" width="8.58608" height="4.29304" rx="2.14652" fill="#D2654D"/>
<rect x="217.872" y="40.7838" width="8.58608" height="4.29304" rx="2.14652" fill="#D2654D"/>
<rect x="226.458" y="66.542" width="8.58608" height="4.29304" rx="2.14652" fill="white"/>
<rect x="226.458" y="32.1978" width="8.58608" height="4.29304" rx="2.14652" fill="white"/>
<rect x="217.872" y="109.472" width="8.58608" height="4.29304" rx="2.14652" fill="white"/>
<rect x="226.458" y="152.403" width="8.58608" height="4.29304" rx="2.14652" fill="white"/>
<rect x="226.458" y="186.747" width="8.58608" height="4.29304" rx="2.14652" fill="white"/>
<rect x="209.286" y="15.0255" width="8.58608" height="4.29304" rx="2.14652" fill="#D2654D"/>
<rect x="213.579" y="6.43951" width="17.1722" height="4.29304" rx="2.14652" fill="#4D92D2"/>
<rect x="230.751" y="23.6116" width="17.1722" height="4.29304" rx="2.14652" fill="#4D92D2"/>
<rect x="230.751" y="57.956" width="17.1722" height="4.29304" rx="2.14652" fill="#4D92D2"/>
<rect x="222.165" y="100.886" width="17.1722" height="4.29304" rx="2.14652" fill="#4D92D2"/>
<rect x="222.165" y="135.231" width="17.1722" height="4.29304" rx="2.14652" fill="#4D92D2"/>
<rect x="230.751" y="143.817" width="17.1722" height="4.29304" rx="2.14652" fill="#4D92D2"/>
<rect x="247.923" y="66.542" width="17.1722" height="4.29304" rx="2.14652" fill="white"/>
<rect x="230.751" y="178.161" width="17.1722" height="4.29304" rx="2.14652" fill="#4D92D2"/>
<rect x="247.923" y="32.1978" width="17.1722" height="4.29304" rx="2.14652" fill="white"/>
<rect x="239.337" y="109.472" width="17.1722" height="4.29304" rx="2.14652" fill="white"/>
<rect x="247.923" y="152.403" width="17.1722" height="4.29304" rx="2.14652" fill="white"/>
<rect x="247.923" y="186.747" width="17.1722" height="4.29304" rx="2.14652" fill="white"/>
<rect x="222.165" y="15.0255" width="17.1722" height="4.29304" rx="2.14652" fill="#4D92D2"/>
<rect x="235.044" y="6.43951" width="17.1722" height="4.29304" rx="2.14652" fill="#EDB241"/>
<rect x="252.216" y="23.6116" width="17.1722" height="4.29304" rx="2.14652" fill="#EDB241"/>
<rect x="252.216" y="57.956" width="17.1722" height="4.29304" rx="2.14652" fill="#EDB241"/>
<rect x="243.63" y="100.886" width="17.1722" height="4.29304" rx="2.14652" fill="#EDB241"/>
<rect x="243.63" y="135.231" width="17.1722" height="4.29304" rx="2.14652" fill="#EDB241"/>
<rect x="252.216" y="143.817" width="17.1722" height="4.29304" rx="2.14652" fill="#EDB241"/>
<rect x="252.216" y="178.161" width="17.1722" height="4.29304" rx="2.14652" fill="#EDB241"/>
<rect x="243.63" y="15.0255" width="17.1722" height="4.29304" rx="2.14652" fill="#EDB241"/>
<rect x="269.388" y="6.43951" width="17.1722" height="4.29304" rx="2.14652" fill="#EDB241"/>
<rect x="256.509" y="6.43951" width="8.58608" height="4.29304" rx="2.14652" fill="#4D92D2"/>
<rect x="273.681" y="23.6116" width="8.58608" height="4.29304" rx="2.14652" fill="#4D92D2"/>
<rect x="272.608" y="143.817" width="8.58608" height="4.29304" rx="2.14652" fill="#4D92D2"/>
<rect x="269.388" y="66.542" width="8.58608" height="4.29304" rx="2.14652" fill="white"/>
<rect x="272.608" y="178.161" width="8.58608" height="4.29304" rx="2.14652" fill="#4D92D2"/>
<rect x="273.681" y="57.956" width="8.58608" height="4.29304" rx="2.14652" fill="#4D92D2"/>
<rect x="269.388" y="32.1978" width="8.58608" height="4.29304" rx="2.14652" fill="white"/>
<rect x="239.337" y="66.542" width="4.29304" height="4.29304" rx="2.14652" fill="white"/>
<rect x="260.802" y="109.472" width="8.58608" height="4.29304" rx="2.14652" fill="white"/>
<rect x="269.388" y="152.403" width="8.58608" height="4.29304" rx="2.14652" fill="white"/>
<rect x="269.388" y="186.747" width="8.58608" height="4.29304" rx="2.14652" fill="white"/>
<rect x="239.337" y="32.1978" width="4.29304" height="4.29304" rx="2.14652" fill="white"/>
<rect x="230.751" y="109.472" width="4.29304" height="4.29304" rx="2.14652" fill="white"/>
<rect x="239.337" y="152.403" width="4.29304" height="4.29304" rx="2.14652" fill="white"/>
<rect x="239.337" y="186.747" width="4.29304" height="4.29304" rx="2.14652" fill="white"/>
<rect x="100.887" y="201.773" width="91.2271" height="8.58608" fill="#D9D9D9"/>
<rect x="15.0254" y="15.0256" width="8.58608" height="4.29304" rx="2.14652" fill="#A7D24D"/>
<rect x="15.0254" y="66.5421" width="8.58608" height="4.29304" rx="2.14652" fill="#A7D24D"/>
<rect x="15.0254" y="118.059" width="8.58608" height="4.29304" rx="2.14652" fill="#A7D24D"/>
<rect x="15.0254" y="92.3004" width="8.58608" height="4.29304" rx="2.14652" fill="#A7D24D"/>
<rect x="15.0254" y="152.403" width="8.58608" height="4.29304" rx="2.14652" fill="#A7D24D"/>
<rect x="45.0767" y="160.989" width="8.58608" height="4.29304" rx="2.14652" fill="#A7D24D"/>
<rect x="110.546" y="115.912" width="8.58608" height="4.29304" rx="2.14652" fill="#5C5C5C"/>
<rect x="153.476" y="115.912" width="8.58608" height="4.29304" rx="2.14652" fill="#5C5C5C"/>
<rect x="134.158" y="124.498" width="8.58608" height="4.29304" rx="2.14652" fill="#5C5C5C"/>
<rect x="138.451" y="203.919" width="8.58608" height="4.29304" rx="2.14652" fill="#5C5C5C"/>
<rect x="155.623" y="195.333" width="8.58608" height="4.29304" rx="2.14652" fill="#5C5C5C"/>
<rect x="104.106" y="203.919" width="8.58608" height="4.29304" rx="2.14652" fill="#5C5C5C"/>
<rect x="185.674" y="203.919" width="4.29304" height="4.29304" rx="2.14652" fill="#5C5C5C"/>
<rect x="155.623" y="212.506" width="8.58608" height="4.29304" rx="2.14652" fill="#5C5C5C"/>
<rect x="36.4907" y="203.919" width="8.58608" height="4.29304" rx="2.14652" fill="#EDB241"/>
<rect x="45.0767" y="75.1282" width="8.58608" height="4.29304" rx="2.14652" fill="#A7D24D"/>
<rect x="49.3701" y="92.3004" width="8.58608" height="4.29304" rx="2.14652" fill="#A7D24D"/>
<rect x="36.4907" y="15.0256" width="17.1722" height="4.29304" rx="2.14652" fill="#A7D24D"/>
<rect x="57.9561" y="66.5421" width="17.1722" height="4.29304" rx="2.14652" fill="#A7D24D"/>
<rect x="57.9561" y="118.059" width="17.1722" height="4.29304" rx="2.14652" fill="#A7D24D"/>
<rect x="27.9048" y="66.5421" width="17.1722" height="4.29304" rx="2.14652" fill="#A7D24D"/>
<rect x="27.9048" y="118.059" width="17.1722" height="4.29304" rx="2.14652" fill="#A7D24D"/>
<rect x="27.9048" y="152.403" width="17.1722" height="4.29304" rx="2.14652" fill="#A7D24D"/>
<rect x="45.0767" y="143.817" width="17.1722" height="4.29304" rx="2.14652" fill="#A7D24D"/>
<rect x="23.6118" y="75.1282" width="17.1722" height="4.29304" rx="2.14652" fill="#A7D24D"/>
<rect x="27.9048" y="92.3004" width="17.1722" height="4.29304" rx="2.14652" fill="#A7D24D"/>
<rect x="62.249" y="92.3004" width="17.1722" height="4.29304" rx="2.14652" fill="#A7D24D"/>
<rect x="36.4907" y="83.7143" width="17.1722" height="4.29304" rx="2.14652" fill="#A7D24D"/>
<rect x="57.9561" y="83.7143" width="17.1722" height="4.29304" rx="2.14652" fill="#A7D24D"/>
<rect x="15.0254" y="23.6118" width="17.1722" height="4.29304" rx="2.14652" fill="#A7D24D"/>
<rect x="15.0254" y="57.9561" width="17.1722" height="4.29304" rx="2.14652" fill="#A7D24D"/>
<rect x="127.718" y="107.326" width="17.1722" height="4.29304" rx="2.14652" fill="black"/>
<rect x="104.106" y="186.747" width="17.1722" height="4.29304" rx="2.14652" fill="black"/>
<rect x="129.864" y="186.747" width="8.58608" height="4.29304" rx="2.14652" fill="black"/>
<rect x="155.623" y="186.747" width="17.1722" height="4.29304" rx="2.14652" fill="black"/>
<rect x="181.381" y="186.747" width="8.58608" height="4.29304" rx="2.14652" fill="black"/>
<rect x="132.011" y="115.912" width="17.1722" height="4.29304" rx="2.14652" fill="#5C5C5C"/>
<rect x="15.0254" y="143.817" width="17.1722" height="4.29304" rx="2.14652" fill="#A7D24D"/>
<rect x="15.0254" y="160.989" width="17.1722" height="4.29304" rx="2.14652" fill="#A7D24D"/>
<rect x="6.43945" y="178.161" width="17.1722" height="4.29304" rx="2.14652" fill="#A7D24D"/>
<rect x="6.43945" y="186.747" width="17.1722" height="4.29304" rx="2.14652" fill="#A7D24D"/>
<rect x="15.0254" y="83.7143" width="17.1722" height="4.29304" rx="2.14652" fill="#A7D24D"/>
<rect x="36.4907" y="57.9561" width="17.1722" height="4.29304" rx="2.14652" fill="#A7D24D"/>
<rect x="149.183" y="107.326" width="17.1722" height="4.29304" rx="2.14652" fill="black"/>
<rect x="166.355" y="115.912" width="17.1722" height="4.29304" rx="2.14652" fill="#5C5C5C"/>
<rect x="155.623" y="124.498" width="17.1722" height="4.29304" rx="2.14652" fill="#5C5C5C"/>
<rect x="112.692" y="124.498" width="17.1722" height="4.29304" rx="2.14652" fill="#5C5C5C"/>
<rect x="155.623" y="203.919" width="17.1722" height="4.29304" rx="2.14652" fill="#5C5C5C"/>
<rect x="185.674" y="195.333" width="4.29304" height="4.29304" rx="2.14652" fill="#5C5C5C"/>
<rect x="104.106" y="195.333" width="17.1722" height="4.29304" rx="2.14652" fill="#5C5C5C"/>
<rect x="104.106" y="212.506" width="17.1722" height="4.29304" rx="2.14652" fill="#5C5C5C"/>
<rect x="138.451" y="212.506" width="8.58608" height="4.29304" rx="2.14652" fill="#5C5C5C"/>
<rect x="15.0254" y="32.1978" width="17.1722" height="4.29304" rx="2.14652" fill="#A7D24D"/>
<rect x="57.9561" y="15.0256" width="8.58608" height="4.29304" rx="2.14652" fill="#A7D24D"/>
<rect x="36.4907" y="23.6118" width="8.58608" height="4.29304" rx="2.14652" fill="#A7D24D"/>
<rect x="36.4907" y="32.1978" width="8.58608" height="4.29304" rx="2.14652" fill="#A7D24D"/>
<rect x="27.9048" y="15.0256" width="4.29304" height="4.29304" rx="2.14652" fill="#A7D24D"/>
<rect x="49.3701" y="23.6118" width="4.29304" height="4.29304" rx="2.14652" fill="#A7D24D"/>
<rect x="49.3701" y="32.1978" width="4.29304" height="4.29304" rx="2.14652" fill="#A7D24D"/>
<rect x="49.3701" y="66.5421" width="4.29304" height="4.29304" rx="2.14652" fill="#A7D24D"/>
<rect x="49.3701" y="118.059" width="4.29304" height="4.29304" rx="2.14652" fill="#A7D24D"/>
<rect x="36.4907" y="143.817" width="4.29304" height="4.29304" rx="2.14652" fill="#A7D24D"/>
<rect x="6.43945" y="212.506" width="4.29304" height="4.29304" rx="2.14652" fill="white"/>
<rect x="36.4907" y="186.747" width="4.29304" height="4.29304" rx="2.14652" fill="#A7D24D"/>
<rect x="36.4907" y="160.989" width="4.29304" height="4.29304" rx="2.14652" fill="#A7D24D"/>
<rect x="36.4907" y="178.161" width="4.29304" height="4.29304" rx="2.14652" fill="#A7D24D"/>
<rect x="27.9048" y="178.161" width="4.29304" height="4.29304" rx="2.14652" fill="#A7D24D"/>
<rect x="27.9048" y="186.747" width="4.29304" height="4.29304" rx="2.14652" fill="#A7D24D"/>
<rect x="27.9048" y="203.919" width="4.29304" height="4.29304" rx="2.14652" fill="#A7D24D"/>
<rect x="66.542" y="143.817" width="4.29304" height="4.29304" rx="2.14652" fill="#A7D24D"/>
<rect x="123.425" y="115.912" width="4.29304" height="4.29304" rx="2.14652" fill="#5C5C5C"/>
<rect x="177.088" y="124.498" width="4.29304" height="4.29304" rx="2.14652" fill="#5C5C5C"/>
<rect x="142.744" y="195.333" width="4.29304" height="4.29304" rx="2.14652" fill="#5C5C5C"/>
<rect x="168.502" y="212.506" width="4.29304" height="4.29304" rx="2.14652" fill="#5C5C5C"/>
<rect x="185.674" y="212.506" width="4.29304" height="4.29304" rx="2.14652" fill="#5C5C5C"/>
<rect x="142.744" y="186.747" width="4.29304" height="4.29304" rx="2.14652" fill="black"/>
<rect x="147.037" y="124.498" width="4.29304" height="4.29304" rx="2.14652" fill="#5C5C5C"/>
<rect x="15.0254" y="75.1282" width="4.29304" height="4.29304" rx="2.14652" fill="#A7D24D"/>
<rect x="6.43945" y="6.43951" width="17.1722" height="4.29304" rx="2.14652" fill="white"/>
<rect x="6.43945" y="49.37" width="17.1722" height="4.29304" rx="2.14652" fill="white"/>
<rect x="6.43945" y="109.473" width="17.1722" height="4.29304" rx="2.14652" fill="white"/>
<rect x="6.43945" y="135.231" width="17.1722" height="4.29304" rx="2.14652" fill="white"/>
<rect x="6.43945" y="203.919" width="17.1722" height="4.29304" rx="2.14652" fill="#D24DAD"/>
<rect x="27.9048" y="109.473" width="8.58608" height="4.29304" rx="2.14652" fill="white"/>
<rect x="97.6665" width="97.6667" height="19.3187" fill="#D9D9D9"/>
<rect x="181.381" y="7.51276" width="8.58608" height="4.29304" rx="2.14652" fill="#5C5C5C"/>
<rect x="168.502" y="7.51276" width="8.58608" height="4.29304" rx="2.14652" fill="#5C5C5C"/>
<rect x="155.623" y="7.51276" width="8.58608" height="4.29304" rx="2.14652" fill="#5C5C5C"/>
<rect x="104.106" y="26.8315" width="85.8608" height="66.5421" fill="url(#paint0_linear_249_197)"/>
<circle cx="107.326" cy="9.65941" r="6.43956" fill="#5C5C5C"/>
<rect x="107.326" y="143.817" width="23.6117" height="23.6117" rx="2" fill="#C8FEDB"/>
<rect x="135.231" y="143.817" width="23.6117" height="23.6117" rx="2" fill="#F4DD92"/>
<rect x="163.136" y="143.817" width="23.6117" height="23.6117" rx="2" fill="#F8807E"/>
<defs>
<linearGradient id="paint0_linear_249_197" x1="104.106" y1="60.1025" x2="189.967" y2="60.1025" gradientUnits="userSpaceOnUse">
<stop stop-color="#C6FFDD"/>
<stop offset="0.6" stop-color="#FBD786"/>
<stop offset="1" stop-color="#F7797D"/>
</linearGradient>
</defs>
</svg>
