<svg width="83" height="57" viewBox="0 0 83 57" fill="none" xmlns="http://www.w3.org/2000/svg">
<mask id="path-1-inside-1_287_2" fill="white">
<path d="M0 47C0 46.4477 0.447715 46 1 46H82C82.5523 46 83 46.4477 83 47V52C83 54.7614 80.7614 57 78 57H5C2.23858 57 0 54.7614 0 52V47Z"/>
</mask>
<path d="M0 47C0 46.4477 0.447715 46 1 46H82C82.5523 46 83 46.4477 83 47V52C83 54.7614 80.7614 57 78 57H5C2.23858 57 0 54.7614 0 52V47Z" stroke="#2A2A2A" stroke-width="4" mask="url(#path-1-inside-1_287_2)"/>
<rect x="34" y="49" width="15" height="2" rx="1" fill="#2A2A2A"/>
<rect x="6" width="71" height="45" rx="5" fill="#2A2A2A"/>
<circle cx="1" cy="1" r="1" transform="matrix(1 0 0 -1 41 5)" fill="#C8FEDB"/>
<rect x="8" y="10" width="3" height="2" fill="white"/>
<rect x="14" y="10" width="4" height="2" fill="white"/>
<rect x="19" y="10" width="6" height="2" fill="white"/>
<rect x="8" y="14" width="15" height="2" fill="white"/>
<rect x="8" y="17" width="23" height="2" fill="white"/>
<rect x="8" y="20" width="23" height="2" fill="white"/>
<rect x="8" y="23" width="23" height="2" fill="white"/>
<rect x="8" y="26" width="29" height="2" fill="white"/>
<rect x="8" y="32" width="3" height="2" fill="white"/>
<rect x="12" y="32" width="1" height="2" fill="white"/>
<rect x="12" y="10" width="1" height="2" fill="white"/>
</svg>
