<svg width="53" height="45" viewBox="0 0 53 45" fill="none" xmlns="http://www.w3.org/2000/svg">
<rect x="1" width="23" height="45" rx="5" fill="white"/>
<circle cx="1" cy="1" r="1" transform="matrix(1 0 0 -1 12 4)" fill="#2A2A2A"/>
<path d="M24 9V9C24.5523 9 25 9.44772 25 10V13C25 13.5523 24.5523 14 24 14V14V9Z" fill="white"/>
<path d="M52 7V7C52.5523 7 53 7.44772 53 8V10C53 10.5523 52.5523 11 52 11V11V7Z" fill="white"/>
<path d="M52 12V12C52.5523 12 53 12.4477 53 13V15C53 15.5523 52.5523 16 52 16V16V12Z" fill="white"/>
<rect x="29" width="23" height="45" rx="5" fill="white"/>
<circle cx="1.5" cy="1.5" r="1.5" transform="matrix(1 0 0 -1 33 8)" fill="#2A2A2A"/>
<circle cx="1.5" cy="1.5" r="1.5" transform="matrix(1 0 0 -1 33 12)" fill="#2A2A2A"/>
<circle cx="1.5" cy="1.5" r="1.5" transform="matrix(1 0 0 -1 37 10)" fill="#2A2A2A"/>
<path d="M0 8C0 7.44772 0.447715 7 1 7V7V11V11C0.447715 11 0 10.5523 0 10V8Z" fill="white"/>
<path d="M28 10C28 9.44772 28.4477 9 29 9V9V14V14C28.4477 14 28 13.5523 28 13V10Z" fill="white"/>
<path d="M0 13C0 12.4477 0.447715 12 1 12V12V16V16C0.447715 16 0 15.5523 0 15V13Z" fill="white"/>
</svg>
