<svg width="290" height="200" viewBox="0 0 290 200" fill="none" xmlns="http://www.w3.org/2000/svg">
<rect x="14" y="36" width="262" height="126" fill="#EEF7E5"/>
<rect x="132.332" y="1.5" width="99.3358" height="197" rx="17.5" fill="white" stroke="#2A2A2A" stroke-width="3"/>
<circle cx="5" cy="5" r="5" transform="matrix(1 0 0 -1 177 18)" fill="#2A2A2A"/>
<path d="M232.383 40.5228V40.5228C233.828 40.5228 235 41.6946 235 43.1401V60.1278C235 61.5733 233.828 62.745 232.383 62.745V62.745V40.5228Z" fill="#2A2A2A"/>
<path d="M129 33.9897C129 32.5442 130.172 31.3724 131.617 31.3724V31.3724V48.3659V48.3659C130.172 48.3659 129 47.1941 129 45.7486V33.9897Z" fill="#2A2A2A"/>
<path d="M129 56.212C129 54.7665 130.172 53.5947 131.617 53.5947V53.5947V70.5882V70.5882C130.172 70.5882 129 69.4164 129 67.9709V56.212Z" fill="#2A2A2A"/>
<rect x="95" y="78" width="100" height="44" rx="8" fill="#A1C457" stroke="#272727" stroke-width="2"/>
<circle cx="98.8101" cy="103.34" r="0.810077" fill="#272727"/>
<circle cx="98.8101" cy="106.58" r="0.810077" fill="#272727"/>
<circle cx="98.8101" cy="109.82" r="0.810077" fill="#272727"/>
<circle cx="98.8101" cy="113.061" r="0.810077" fill="#272727"/>
<circle cx="98.8101" cy="116.301" r="0.810077" fill="#272727"/>
<circle cx="98.8101" cy="119.541" r="0.810077" fill="#272727"/>
<circle cx="98.8101" cy="100.099" r="0.810077" fill="#272727"/>
<circle cx="98.8101" cy="96.859" r="0.810077" fill="#272727"/>
<circle cx="98.8101" cy="93.6187" r="0.810077" fill="#272727"/>
<circle cx="98.8101" cy="90.3784" r="0.810077" fill="#272727"/>
<circle cx="98.8101" cy="87.1381" r="0.810077" fill="#272727"/>
<circle cx="98.8101" cy="83.8978" r="0.810077" fill="#272727"/>
<circle cx="98.8101" cy="80.6575" r="0.810077" fill="#272727"/>
<circle cx="118.252" cy="103.34" r="0.810077" fill="#272727"/>
<circle cx="118.252" cy="106.58" r="0.810077" fill="#272727"/>
<circle cx="118.252" cy="109.82" r="0.810077" fill="#272727"/>
<circle cx="118.252" cy="113.061" r="0.810077" fill="#272727"/>
<circle cx="118.252" cy="116.301" r="0.810077" fill="#272727"/>
<circle cx="118.252" cy="119.541" r="0.810077" fill="#272727"/>
<circle cx="118.252" cy="100.099" r="0.810077" fill="#272727"/>
<circle cx="118.252" cy="96.859" r="0.810077" fill="#272727"/>
<circle cx="118.252" cy="93.6187" r="0.810077" fill="#272727"/>
<circle cx="118.252" cy="90.3784" r="0.810077" fill="#272727"/>
<circle cx="118.252" cy="87.1381" r="0.810077" fill="#272727"/>
<circle cx="118.252" cy="83.8978" r="0.810077" fill="#272727"/>
<circle cx="118.252" cy="80.6575" r="0.810077" fill="#272727"/>
<circle cx="137.694" cy="103.34" r="0.810077" fill="#272727"/>
<circle cx="137.694" cy="106.58" r="0.810077" fill="#272727"/>
<circle cx="137.694" cy="109.82" r="0.810077" fill="#272727"/>
<circle cx="137.694" cy="113.061" r="0.810077" fill="#272727"/>
<circle cx="137.694" cy="116.301" r="0.810077" fill="#272727"/>
<circle cx="137.694" cy="119.541" r="0.810077" fill="#272727"/>
<circle cx="137.694" cy="100.099" r="0.810077" fill="#272727"/>
<circle cx="137.694" cy="96.859" r="0.810077" fill="#272727"/>
<circle cx="137.694" cy="93.6187" r="0.810077" fill="#272727"/>
<circle cx="137.694" cy="90.3784" r="0.810077" fill="#272727"/>
<circle cx="137.694" cy="87.1381" r="0.810077" fill="#272727"/>
<circle cx="137.694" cy="83.8978" r="0.810077" fill="#272727"/>
<circle cx="137.694" cy="80.6575" r="0.810077" fill="#272727"/>
<circle cx="157.136" cy="103.34" r="0.810077" fill="#272727"/>
<circle cx="157.136" cy="106.58" r="0.810077" fill="#272727"/>
<circle cx="157.136" cy="109.82" r="0.810077" fill="#272727"/>
<circle cx="157.136" cy="113.061" r="0.810077" fill="#272727"/>
<circle cx="157.136" cy="116.301" r="0.810077" fill="#272727"/>
<circle cx="157.136" cy="119.541" r="0.810077" fill="#272727"/>
<circle cx="157.136" cy="100.099" r="0.810077" fill="#272727"/>
<circle cx="157.136" cy="96.859" r="0.810077" fill="#272727"/>
<circle cx="157.136" cy="93.6187" r="0.810077" fill="#272727"/>
<circle cx="157.136" cy="90.3784" r="0.810077" fill="#272727"/>
<circle cx="157.136" cy="87.1381" r="0.810077" fill="#272727"/>
<circle cx="157.136" cy="83.8978" r="0.810077" fill="#272727"/>
<circle cx="157.136" cy="80.6575" r="0.810077" fill="#272727"/>
<circle cx="176.578" cy="103.34" r="0.810077" fill="#272727"/>
<circle cx="176.578" cy="106.58" r="0.810077" fill="#272727"/>
<circle cx="176.578" cy="109.82" r="0.810077" fill="#272727"/>
<circle cx="176.578" cy="113.061" r="0.810077" fill="#272727"/>
<circle cx="176.578" cy="116.301" r="0.810077" fill="#272727"/>
<circle cx="176.578" cy="119.541" r="0.810077" fill="#272727"/>
<circle cx="176.578" cy="100.099" r="0.810077" fill="#272727"/>
<circle cx="176.578" cy="96.859" r="0.810077" fill="#272727"/>
<circle cx="176.578" cy="93.6187" r="0.810077" fill="#272727"/>
<circle cx="176.578" cy="90.3784" r="0.810077" fill="#272727"/>
<circle cx="176.578" cy="87.1381" r="0.810077" fill="#272727"/>
<circle cx="176.578" cy="83.8978" r="0.810077" fill="#272727"/>
<circle cx="176.578" cy="80.6575" r="0.810077" fill="#272727"/>
<circle cx="102.05" cy="103.34" r="0.810077" fill="#272727"/>
<circle cx="102.05" cy="106.58" r="0.810077" fill="#272727"/>
<circle cx="102.05" cy="109.82" r="0.810077" fill="#272727"/>
<circle cx="102.05" cy="113.061" r="0.810077" fill="#272727"/>
<circle cx="102.05" cy="116.301" r="0.810077" fill="#272727"/>
<circle cx="102.05" cy="119.541" r="0.810077" fill="#272727"/>
<circle cx="102.05" cy="100.099" r="0.810077" fill="#272727"/>
<circle cx="102.05" cy="96.859" r="0.810077" fill="#272727"/>
<circle cx="102.05" cy="93.6187" r="0.810077" fill="#272727"/>
<circle cx="102.05" cy="90.3784" r="0.810077" fill="#272727"/>
<circle cx="102.05" cy="87.1381" r="0.810077" fill="#272727"/>
<circle cx="102.05" cy="83.8978" r="0.810077" fill="#272727"/>
<circle cx="102.05" cy="80.6575" r="0.810077" fill="#272727"/>
<circle cx="121.492" cy="103.34" r="0.810077" fill="#272727"/>
<circle cx="121.492" cy="106.58" r="0.810077" fill="#272727"/>
<circle cx="121.492" cy="109.82" r="0.810077" fill="#272727"/>
<circle cx="121.492" cy="113.061" r="0.810077" fill="#272727"/>
<circle cx="121.492" cy="116.301" r="0.810077" fill="#272727"/>
<circle cx="121.492" cy="119.541" r="0.810077" fill="#272727"/>
<circle cx="121.492" cy="100.099" r="0.810077" fill="#272727"/>
<circle cx="121.492" cy="96.859" r="0.810077" fill="#272727"/>
<circle cx="121.492" cy="93.6187" r="0.810077" fill="#272727"/>
<circle cx="121.492" cy="90.3784" r="0.810077" fill="#272727"/>
<circle cx="121.492" cy="87.1381" r="0.810077" fill="#272727"/>
<circle cx="121.492" cy="83.8978" r="0.810077" fill="#272727"/>
<circle cx="121.492" cy="80.6575" r="0.810077" fill="#272727"/>
<circle cx="140.934" cy="103.34" r="0.810077" fill="#272727"/>
<circle cx="140.934" cy="106.58" r="0.810077" fill="#272727"/>
<circle cx="140.934" cy="109.82" r="0.810077" fill="#272727"/>
<circle cx="140.934" cy="113.061" r="0.810077" fill="#272727"/>
<circle cx="140.934" cy="116.301" r="0.810077" fill="#272727"/>
<circle cx="140.934" cy="119.541" r="0.810077" fill="#272727"/>
<circle cx="140.934" cy="100.099" r="0.810077" fill="#272727"/>
<circle cx="140.934" cy="96.859" r="0.810077" fill="#272727"/>
<circle cx="140.934" cy="93.6187" r="0.810077" fill="#272727"/>
<circle cx="140.934" cy="90.3784" r="0.810077" fill="#272727"/>
<circle cx="140.934" cy="87.1381" r="0.810077" fill="#272727"/>
<circle cx="140.934" cy="83.8978" r="0.810077" fill="#272727"/>
<circle cx="140.934" cy="80.6575" r="0.810077" fill="#272727"/>
<circle cx="160.376" cy="103.34" r="0.810077" fill="#272727"/>
<circle cx="160.376" cy="106.58" r="0.810077" fill="#272727"/>
<circle cx="160.376" cy="109.82" r="0.810077" fill="#272727"/>
<circle cx="160.376" cy="113.061" r="0.810077" fill="#272727"/>
<circle cx="160.376" cy="116.301" r="0.810077" fill="#272727"/>
<circle cx="160.376" cy="119.541" r="0.810077" fill="#272727"/>
<circle cx="160.376" cy="100.099" r="0.810077" fill="#272727"/>
<circle cx="160.376" cy="96.859" r="0.810077" fill="#272727"/>
<circle cx="160.376" cy="93.6187" r="0.810077" fill="#272727"/>
<circle cx="160.376" cy="90.3784" r="0.810077" fill="#272727"/>
<circle cx="160.376" cy="87.1381" r="0.810077" fill="#272727"/>
<circle cx="160.376" cy="83.8978" r="0.810077" fill="#272727"/>
<circle cx="160.376" cy="80.6575" r="0.810077" fill="#272727"/>
<circle cx="179.818" cy="103.34" r="0.810077" fill="#272727"/>
<circle cx="179.818" cy="106.58" r="0.810077" fill="#272727"/>
<circle cx="179.818" cy="109.82" r="0.810077" fill="#272727"/>
<circle cx="179.818" cy="113.061" r="0.810077" fill="#272727"/>
<circle cx="179.818" cy="116.301" r="0.810077" fill="#272727"/>
<circle cx="179.818" cy="119.541" r="0.810077" fill="#272727"/>
<circle cx="179.818" cy="100.099" r="0.810077" fill="#272727"/>
<circle cx="179.818" cy="96.859" r="0.810077" fill="#272727"/>
<circle cx="179.818" cy="93.6187" r="0.810077" fill="#272727"/>
<circle cx="179.818" cy="90.3784" r="0.810077" fill="#272727"/>
<circle cx="179.818" cy="87.1381" r="0.810077" fill="#272727"/>
<circle cx="179.818" cy="83.8978" r="0.810077" fill="#272727"/>
<circle cx="179.818" cy="80.6575" r="0.810077" fill="#272727"/>
<circle cx="105.291" cy="103.34" r="0.810077" fill="#272727"/>
<circle cx="105.291" cy="106.58" r="0.810077" fill="#272727"/>
<circle cx="105.291" cy="109.82" r="0.810077" fill="#272727"/>
<circle cx="105.291" cy="113.061" r="0.810077" fill="#272727"/>
<circle cx="105.291" cy="116.301" r="0.810077" fill="#272727"/>
<circle cx="105.291" cy="119.541" r="0.810077" fill="#272727"/>
<circle cx="105.291" cy="100.099" r="0.810077" fill="#272727"/>
<circle cx="105.291" cy="96.859" r="0.810077" fill="#272727"/>
<circle cx="105.291" cy="93.6187" r="0.810077" fill="#272727"/>
<circle cx="105.291" cy="90.3784" r="0.810077" fill="#272727"/>
<circle cx="105.291" cy="87.1381" r="0.810077" fill="#272727"/>
<circle cx="105.291" cy="83.8978" r="0.810077" fill="#272727"/>
<circle cx="105.291" cy="80.6575" r="0.810077" fill="#272727"/>
<circle cx="124.732" cy="103.34" r="0.810077" fill="#272727"/>
<circle cx="124.732" cy="106.58" r="0.810077" fill="#272727"/>
<circle cx="124.732" cy="109.82" r="0.810077" fill="#272727"/>
<circle cx="124.732" cy="113.061" r="0.810077" fill="#272727"/>
<circle cx="124.732" cy="116.301" r="0.810077" fill="#272727"/>
<circle cx="124.732" cy="119.541" r="0.810077" fill="#272727"/>
<circle cx="124.732" cy="100.099" r="0.810077" fill="#272727"/>
<circle cx="124.732" cy="96.859" r="0.810077" fill="#272727"/>
<circle cx="124.732" cy="93.6187" r="0.810077" fill="#272727"/>
<circle cx="124.732" cy="90.3784" r="0.810077" fill="#272727"/>
<circle cx="124.732" cy="87.1381" r="0.810077" fill="#272727"/>
<circle cx="124.732" cy="83.8978" r="0.810077" fill="#272727"/>
<circle cx="124.732" cy="80.6575" r="0.810077" fill="#272727"/>
<circle cx="144.174" cy="103.34" r="0.810077" fill="#272727"/>
<circle cx="144.174" cy="106.58" r="0.810077" fill="#272727"/>
<circle cx="144.174" cy="109.82" r="0.810077" fill="#272727"/>
<circle cx="144.174" cy="113.061" r="0.810077" fill="#272727"/>
<circle cx="144.174" cy="116.301" r="0.810077" fill="#272727"/>
<circle cx="144.174" cy="119.541" r="0.810077" fill="#272727"/>
<circle cx="144.174" cy="100.099" r="0.810077" fill="#272727"/>
<circle cx="144.174" cy="96.859" r="0.810077" fill="#272727"/>
<circle cx="144.174" cy="93.6187" r="0.810077" fill="#272727"/>
<circle cx="144.174" cy="90.3784" r="0.810077" fill="#272727"/>
<circle cx="144.174" cy="87.1381" r="0.810077" fill="#272727"/>
<circle cx="144.174" cy="83.8978" r="0.810077" fill="#272727"/>
<circle cx="144.174" cy="80.6575" r="0.810077" fill="#272727"/>
<circle cx="163.616" cy="103.34" r="0.810077" fill="#272727"/>
<circle cx="163.616" cy="106.58" r="0.810077" fill="#272727"/>
<circle cx="163.616" cy="109.82" r="0.810077" fill="#272727"/>
<circle cx="163.616" cy="113.061" r="0.810077" fill="#272727"/>
<circle cx="163.616" cy="116.301" r="0.810077" fill="#272727"/>
<circle cx="163.616" cy="119.541" r="0.810077" fill="#272727"/>
<circle cx="163.616" cy="100.099" r="0.810077" fill="#272727"/>
<circle cx="163.616" cy="96.859" r="0.810077" fill="#272727"/>
<circle cx="163.616" cy="93.6187" r="0.810077" fill="#272727"/>
<circle cx="163.616" cy="90.3784" r="0.810077" fill="#272727"/>
<circle cx="163.616" cy="87.1381" r="0.810077" fill="#272727"/>
<circle cx="163.616" cy="83.8978" r="0.810077" fill="#272727"/>
<circle cx="163.616" cy="80.6575" r="0.810077" fill="#272727"/>
<circle cx="183.058" cy="103.34" r="0.810077" fill="#272727"/>
<circle cx="183.058" cy="106.58" r="0.810077" fill="#272727"/>
<circle cx="183.058" cy="109.82" r="0.810077" fill="#272727"/>
<circle cx="183.058" cy="113.061" r="0.810077" fill="#272727"/>
<circle cx="183.058" cy="116.301" r="0.810077" fill="#272727"/>
<circle cx="183.058" cy="119.541" r="0.810077" fill="#272727"/>
<circle cx="183.058" cy="100.099" r="0.810077" fill="#272727"/>
<circle cx="183.058" cy="96.859" r="0.810077" fill="#272727"/>
<circle cx="183.058" cy="93.6187" r="0.810077" fill="#272727"/>
<circle cx="183.058" cy="90.3784" r="0.810077" fill="#272727"/>
<circle cx="183.058" cy="87.1381" r="0.810077" fill="#272727"/>
<circle cx="183.058" cy="83.8978" r="0.810077" fill="#272727"/>
<circle cx="183.058" cy="80.6575" r="0.810077" fill="#272727"/>
<circle cx="108.531" cy="103.34" r="0.810077" fill="#272727"/>
<circle cx="108.531" cy="106.58" r="0.810077" fill="#272727"/>
<circle cx="108.531" cy="109.82" r="0.810077" fill="#272727"/>
<circle cx="108.531" cy="113.061" r="0.810077" fill="#272727"/>
<circle cx="108.531" cy="116.301" r="0.810077" fill="#272727"/>
<circle cx="108.531" cy="119.541" r="0.810077" fill="#272727"/>
<circle cx="108.531" cy="100.099" r="0.810077" fill="#272727"/>
<circle cx="108.531" cy="96.859" r="0.810077" fill="#272727"/>
<circle cx="108.531" cy="93.6187" r="0.810077" fill="#272727"/>
<circle cx="108.531" cy="90.3784" r="0.810077" fill="#272727"/>
<circle cx="108.531" cy="87.1381" r="0.810077" fill="#272727"/>
<circle cx="108.531" cy="83.8978" r="0.810077" fill="#272727"/>
<circle cx="108.531" cy="80.6575" r="0.810077" fill="#272727"/>
<circle cx="127.973" cy="103.34" r="0.810077" fill="#272727"/>
<circle cx="127.973" cy="106.58" r="0.810077" fill="#272727"/>
<circle cx="127.973" cy="109.82" r="0.810077" fill="#272727"/>
<circle cx="127.973" cy="113.061" r="0.810077" fill="#272727"/>
<circle cx="127.973" cy="116.301" r="0.810077" fill="#272727"/>
<circle cx="127.973" cy="119.541" r="0.810077" fill="#272727"/>
<circle cx="127.973" cy="100.099" r="0.810077" fill="#272727"/>
<circle cx="127.973" cy="96.859" r="0.810077" fill="#272727"/>
<circle cx="127.973" cy="93.6187" r="0.810077" fill="#272727"/>
<circle cx="127.973" cy="90.3784" r="0.810077" fill="#272727"/>
<circle cx="127.973" cy="87.1381" r="0.810077" fill="#272727"/>
<circle cx="127.973" cy="83.8978" r="0.810077" fill="#272727"/>
<circle cx="127.973" cy="80.6575" r="0.810077" fill="#272727"/>
<circle cx="147.415" cy="103.34" r="0.810077" fill="#272727"/>
<circle cx="147.415" cy="106.58" r="0.810077" fill="#272727"/>
<circle cx="147.415" cy="109.82" r="0.810077" fill="#272727"/>
<circle cx="147.415" cy="113.061" r="0.810077" fill="#272727"/>
<circle cx="147.415" cy="116.301" r="0.810077" fill="#272727"/>
<circle cx="147.415" cy="119.541" r="0.810077" fill="#272727"/>
<circle cx="147.415" cy="100.099" r="0.810077" fill="#272727"/>
<circle cx="147.415" cy="96.859" r="0.810077" fill="#272727"/>
<circle cx="147.415" cy="93.6187" r="0.810077" fill="#272727"/>
<circle cx="147.415" cy="90.3784" r="0.810077" fill="#272727"/>
<circle cx="147.415" cy="87.1381" r="0.810077" fill="#272727"/>
<circle cx="147.415" cy="83.8978" r="0.810077" fill="#272727"/>
<circle cx="147.415" cy="80.6575" r="0.810077" fill="#272727"/>
<circle cx="166.856" cy="103.34" r="0.810077" fill="#272727"/>
<circle cx="166.856" cy="106.58" r="0.810077" fill="#272727"/>
<circle cx="166.856" cy="109.82" r="0.810077" fill="#272727"/>
<circle cx="166.856" cy="113.061" r="0.810077" fill="#272727"/>
<circle cx="166.856" cy="116.301" r="0.810077" fill="#272727"/>
<circle cx="166.856" cy="119.541" r="0.810077" fill="#272727"/>
<circle cx="166.856" cy="100.099" r="0.810077" fill="#272727"/>
<circle cx="166.856" cy="96.859" r="0.810077" fill="#272727"/>
<circle cx="166.856" cy="93.6187" r="0.810077" fill="#272727"/>
<circle cx="166.856" cy="90.3784" r="0.810077" fill="#272727"/>
<circle cx="166.856" cy="87.1381" r="0.810077" fill="#272727"/>
<circle cx="166.856" cy="83.8978" r="0.810077" fill="#272727"/>
<circle cx="166.856" cy="80.6575" r="0.810077" fill="#272727"/>
<circle cx="186.298" cy="103.34" r="0.810077" fill="#272727"/>
<circle cx="186.298" cy="106.58" r="0.810077" fill="#272727"/>
<circle cx="186.298" cy="109.82" r="0.810077" fill="#272727"/>
<circle cx="186.298" cy="113.061" r="0.810077" fill="#272727"/>
<circle cx="186.298" cy="116.301" r="0.810077" fill="#272727"/>
<circle cx="186.298" cy="119.541" r="0.810077" fill="#272727"/>
<circle cx="186.298" cy="100.099" r="0.810077" fill="#272727"/>
<circle cx="186.298" cy="96.859" r="0.810077" fill="#272727"/>
<circle cx="186.298" cy="93.6187" r="0.810077" fill="#272727"/>
<circle cx="186.298" cy="90.3784" r="0.810077" fill="#272727"/>
<circle cx="186.298" cy="87.1381" r="0.810077" fill="#272727"/>
<circle cx="186.298" cy="83.8978" r="0.810077" fill="#272727"/>
<circle cx="186.298" cy="80.6575" r="0.810077" fill="#272727"/>
<circle cx="111.771" cy="103.34" r="0.810077" fill="#272727"/>
<circle cx="111.771" cy="106.58" r="0.810077" fill="#272727"/>
<circle cx="111.771" cy="109.82" r="0.810077" fill="#272727"/>
<circle cx="111.771" cy="113.061" r="0.810077" fill="#272727"/>
<circle cx="111.771" cy="116.301" r="0.810077" fill="#272727"/>
<circle cx="111.771" cy="119.541" r="0.810077" fill="#272727"/>
<circle cx="111.771" cy="100.099" r="0.810077" fill="#272727"/>
<circle cx="111.771" cy="96.859" r="0.810077" fill="#272727"/>
<circle cx="111.771" cy="93.6187" r="0.810077" fill="#272727"/>
<circle cx="111.771" cy="90.3784" r="0.810077" fill="#272727"/>
<circle cx="111.771" cy="87.1381" r="0.810077" fill="#272727"/>
<circle cx="111.771" cy="83.8978" r="0.810077" fill="#272727"/>
<circle cx="111.771" cy="80.6575" r="0.810077" fill="#272727"/>
<circle cx="131.213" cy="103.34" r="0.810077" fill="#272727"/>
<circle cx="131.213" cy="106.58" r="0.810077" fill="#272727"/>
<circle cx="131.213" cy="109.82" r="0.810077" fill="#272727"/>
<circle cx="131.213" cy="113.061" r="0.810077" fill="#272727"/>
<circle cx="131.213" cy="116.301" r="0.810077" fill="#272727"/>
<circle cx="131.213" cy="119.541" r="0.810077" fill="#272727"/>
<circle cx="131.213" cy="100.099" r="0.810077" fill="#272727"/>
<circle cx="131.213" cy="96.859" r="0.810077" fill="#272727"/>
<circle cx="131.213" cy="93.6187" r="0.810077" fill="#272727"/>
<circle cx="131.213" cy="90.3784" r="0.810077" fill="#272727"/>
<circle cx="131.213" cy="87.1381" r="0.810077" fill="#272727"/>
<circle cx="131.213" cy="83.8978" r="0.810077" fill="#272727"/>
<circle cx="131.213" cy="80.6575" r="0.810077" fill="#272727"/>
<circle cx="150.655" cy="103.34" r="0.810077" fill="#272727"/>
<circle cx="150.655" cy="106.58" r="0.810077" fill="#272727"/>
<circle cx="150.655" cy="109.82" r="0.810077" fill="#272727"/>
<circle cx="150.655" cy="113.061" r="0.810077" fill="#272727"/>
<circle cx="150.655" cy="116.301" r="0.810077" fill="#272727"/>
<circle cx="150.655" cy="119.541" r="0.810077" fill="#272727"/>
<circle cx="150.655" cy="100.099" r="0.810077" fill="#272727"/>
<circle cx="150.655" cy="96.859" r="0.810077" fill="#272727"/>
<circle cx="150.655" cy="93.6187" r="0.810077" fill="#272727"/>
<circle cx="150.655" cy="90.3784" r="0.810077" fill="#272727"/>
<circle cx="150.655" cy="87.1381" r="0.810077" fill="#272727"/>
<circle cx="150.655" cy="83.8978" r="0.810077" fill="#272727"/>
<circle cx="150.655" cy="80.6575" r="0.810077" fill="#272727"/>
<circle cx="170.097" cy="103.34" r="0.810077" fill="#272727"/>
<circle cx="170.097" cy="106.58" r="0.810077" fill="#272727"/>
<circle cx="170.097" cy="109.82" r="0.810077" fill="#272727"/>
<circle cx="170.097" cy="113.061" r="0.810077" fill="#272727"/>
<circle cx="170.097" cy="116.301" r="0.810077" fill="#272727"/>
<circle cx="170.097" cy="119.541" r="0.810077" fill="#272727"/>
<circle cx="170.097" cy="100.099" r="0.810077" fill="#272727"/>
<circle cx="170.097" cy="96.859" r="0.810077" fill="#272727"/>
<circle cx="170.097" cy="93.6187" r="0.810077" fill="#272727"/>
<circle cx="170.097" cy="90.3784" r="0.810077" fill="#272727"/>
<circle cx="170.097" cy="87.1381" r="0.810077" fill="#272727"/>
<circle cx="170.097" cy="83.8978" r="0.810077" fill="#272727"/>
<circle cx="170.097" cy="80.6575" r="0.810077" fill="#272727"/>
<circle cx="189.539" cy="103.34" r="0.810077" fill="#272727"/>
<circle cx="189.539" cy="106.58" r="0.810077" fill="#272727"/>
<circle cx="189.539" cy="109.82" r="0.810077" fill="#272727"/>
<circle cx="189.539" cy="113.061" r="0.810077" fill="#272727"/>
<circle cx="189.539" cy="116.301" r="0.810077" fill="#272727"/>
<circle cx="189.539" cy="119.541" r="0.810077" fill="#272727"/>
<circle cx="189.539" cy="100.099" r="0.810077" fill="#272727"/>
<circle cx="189.539" cy="96.859" r="0.810077" fill="#272727"/>
<circle cx="189.539" cy="93.6187" r="0.810077" fill="#272727"/>
<circle cx="189.539" cy="90.3784" r="0.810077" fill="#272727"/>
<circle cx="189.539" cy="87.1381" r="0.810077" fill="#272727"/>
<circle cx="189.539" cy="83.8978" r="0.810077" fill="#272727"/>
<circle cx="189.539" cy="80.6575" r="0.810077" fill="#272727"/>
<circle cx="115.012" cy="103.34" r="0.810077" fill="#272727"/>
<circle cx="115.012" cy="106.58" r="0.810077" fill="#272727"/>
<circle cx="115.012" cy="109.82" r="0.810077" fill="#272727"/>
<circle cx="115.012" cy="113.061" r="0.810077" fill="#272727"/>
<circle cx="115.012" cy="116.301" r="0.810077" fill="#272727"/>
<circle cx="115.012" cy="119.541" r="0.810077" fill="#272727"/>
<circle cx="115.012" cy="100.099" r="0.810077" fill="#272727"/>
<circle cx="115.012" cy="96.859" r="0.810077" fill="#272727"/>
<circle cx="115.012" cy="93.6187" r="0.810077" fill="#272727"/>
<circle cx="115.012" cy="90.3784" r="0.810077" fill="#272727"/>
<circle cx="115.012" cy="87.1381" r="0.810077" fill="#272727"/>
<circle cx="115.012" cy="83.8978" r="0.810077" fill="#272727"/>
<circle cx="115.012" cy="80.6575" r="0.810077" fill="#272727"/>
<circle cx="134.454" cy="103.34" r="0.810077" fill="#272727"/>
<circle cx="134.454" cy="106.58" r="0.810077" fill="#272727"/>
<circle cx="134.454" cy="109.82" r="0.810077" fill="#272727"/>
<circle cx="134.454" cy="113.061" r="0.810077" fill="#272727"/>
<circle cx="134.454" cy="116.301" r="0.810077" fill="#272727"/>
<circle cx="134.454" cy="119.541" r="0.810077" fill="#272727"/>
<circle cx="134.454" cy="100.099" r="0.810077" fill="#272727"/>
<circle cx="134.454" cy="96.859" r="0.810077" fill="#272727"/>
<circle cx="134.454" cy="93.6187" r="0.810077" fill="#272727"/>
<circle cx="134.454" cy="90.3784" r="0.810077" fill="#272727"/>
<circle cx="134.454" cy="87.1381" r="0.810077" fill="#272727"/>
<circle cx="134.454" cy="83.8978" r="0.810077" fill="#272727"/>
<circle cx="134.454" cy="80.6575" r="0.810077" fill="#272727"/>
<circle cx="153.896" cy="103.34" r="0.810077" fill="#272727"/>
<circle cx="153.896" cy="106.58" r="0.810077" fill="#272727"/>
<circle cx="153.896" cy="109.82" r="0.810077" fill="#272727"/>
<circle cx="153.896" cy="113.061" r="0.810077" fill="#272727"/>
<circle cx="153.896" cy="116.301" r="0.810077" fill="#272727"/>
<circle cx="153.896" cy="119.541" r="0.810077" fill="#272727"/>
<circle cx="153.896" cy="100.099" r="0.810077" fill="#272727"/>
<circle cx="153.896" cy="96.859" r="0.810077" fill="#272727"/>
<circle cx="153.896" cy="93.6187" r="0.810077" fill="#272727"/>
<circle cx="153.896" cy="90.3784" r="0.810077" fill="#272727"/>
<circle cx="153.896" cy="87.1381" r="0.810077" fill="#272727"/>
<circle cx="153.896" cy="83.8978" r="0.810077" fill="#272727"/>
<circle cx="153.896" cy="80.6575" r="0.810077" fill="#272727"/>
<circle cx="173.337" cy="103.34" r="0.810077" fill="#272727"/>
<circle cx="173.337" cy="106.58" r="0.810077" fill="#272727"/>
<circle cx="173.337" cy="109.82" r="0.810077" fill="#272727"/>
<circle cx="173.337" cy="113.061" r="0.810077" fill="#272727"/>
<circle cx="173.337" cy="116.301" r="0.810077" fill="#272727"/>
<circle cx="173.337" cy="119.541" r="0.810077" fill="#272727"/>
<circle cx="173.337" cy="100.099" r="0.810077" fill="#272727"/>
<circle cx="173.337" cy="96.859" r="0.810077" fill="#272727"/>
<circle cx="173.337" cy="93.6187" r="0.810077" fill="#272727"/>
<circle cx="173.337" cy="90.3784" r="0.810077" fill="#272727"/>
<circle cx="173.337" cy="87.1381" r="0.810077" fill="#272727"/>
<circle cx="173.337" cy="83.8978" r="0.810077" fill="#272727"/>
<circle cx="173.337" cy="80.6575" r="0.810077" fill="#272727"/>
<circle cx="192.779" cy="103.34" r="0.810077" fill="#272727"/>
<circle cx="192.779" cy="106.58" r="0.810077" fill="#272727"/>
<circle cx="192.779" cy="109.82" r="0.810077" fill="#272727"/>
<circle cx="192.779" cy="113.061" r="0.810077" fill="#272727"/>
<circle cx="192.779" cy="116.301" r="0.810077" fill="#272727"/>
<circle cx="192.779" cy="119.541" r="0.810077" fill="#272727"/>
<circle cx="192.779" cy="100.099" r="0.810077" fill="#272727"/>
<circle cx="192.779" cy="96.859" r="0.810077" fill="#272727"/>
<circle cx="192.779" cy="93.6187" r="0.810077" fill="#272727"/>
<circle cx="192.779" cy="90.3784" r="0.810077" fill="#272727"/>
<circle cx="192.779" cy="87.1381" r="0.810077" fill="#272727"/>
<circle cx="192.779" cy="83.8978" r="0.810077" fill="#272727"/>
<circle cx="192.779" cy="80.6575" r="0.810077" fill="#272727"/>
<path d="M72 107.678L76.541 112.219L88.6504 100.109L76.541 88L72 92.541L79.5684 100.109L72 107.678Z" fill="#2A2A2A"/>
<path d="M66 107.678L70.541 112.219L82.6504 100.109L70.541 88L66 92.541L73.5684 100.109L66 107.678Z" fill="#EEF7E5"/>
<path d="M60 107.678L64.541 112.219L76.6504 100.109L64.541 88L60 92.541L67.5684 100.109L60 107.678Z" fill="#2A2A2A"/>
<path d="M54 107.678L58.541 112.219L70.6504 100.109L58.541 88L54 92.541L61.5684 100.109L54 107.678Z" fill="#EEF7E5"/>
<path d="M257.326 166.059L261.03 172.015H253.623L257.326 166.059Z" fill="#3CA040"/>
<path d="M257.326 115.967L261.03 121.923H253.623L257.326 115.967Z" fill="#3CA040"/>
<path d="M257.326 65.8745L261.03 71.8306H253.623L257.326 65.8745Z" fill="#3CA040"/>
<path d="M257.326 141.013L261.03 146.969H253.623L257.326 141.013Z" fill="#3CA040"/>
<path d="M257.326 90.9205L261.03 96.8766H253.623L257.326 90.9205Z" fill="#3CA040"/>
<path d="M257.326 40.2177L261.03 46.6319H253.623L257.326 40.2177Z" fill="#3CA040"/>
<path d="M257.326 153.23L261.03 159.186H253.623L257.326 153.23Z" fill="#3CA040"/>
<path d="M257.326 103.138L261.03 109.094H253.623L257.326 103.138Z" fill="#3CA040"/>
<path d="M257.326 53.046L261.03 59.0021H253.623L257.326 53.046Z" fill="#3CA040"/>
<path d="M257.326 128.184L261.03 134.14H253.623L257.326 128.184Z" fill="#3CA040"/>
<path d="M257.326 78.092L261.03 84.0481H253.623L257.326 78.092Z" fill="#3CA040"/>
<path d="M257.326 28L261.03 33.9561H253.623L257.326 28Z" fill="#3CA040"/>
<path d="M271.377 166.059L275.08 172.015H267.673L271.377 166.059Z" fill="#3CA040"/>
<path d="M271.377 115.967L275.08 121.923H267.673L271.377 115.967Z" fill="#3CA040"/>
<path d="M271.377 65.8745L275.08 71.8306H267.673L271.377 65.8745Z" fill="#3CA040"/>
<path d="M271.377 141.013L275.08 146.969H267.673L271.377 141.013Z" fill="#3CA040"/>
<path d="M271.377 90.9205L275.08 96.8766H267.673L271.377 90.9205Z" fill="#3CA040"/>
<path d="M271.377 40.2177L275.08 46.6319H267.673L271.377 40.2177Z" fill="#3CA040"/>
<path d="M271.377 153.23L275.08 159.186H267.673L271.377 153.23Z" fill="#3CA040"/>
<path d="M271.377 103.138L275.08 109.094H267.673L271.377 103.138Z" fill="#3CA040"/>
<path d="M271.377 53.046L275.08 59.0021H267.673L271.377 53.046Z" fill="#3CA040"/>
<path d="M271.377 128.184L275.08 134.14H267.673L271.377 128.184Z" fill="#3CA040"/>
<path d="M271.377 78.092L275.08 84.0481H267.673L271.377 78.092Z" fill="#3CA040"/>
<path d="M271.377 28L275.08 33.9561H267.673L271.377 28Z" fill="#3CA040"/>
<path d="M242.971 166.059L246.409 172.015H239.532L242.971 166.059Z" fill="#3CA040"/>
<path d="M242.971 115.967L246.409 121.923H239.532L242.971 115.967Z" fill="#3CA040"/>
<path d="M242.971 65.8745L246.409 71.8306H239.532L242.971 65.8745Z" fill="#3CA040"/>
<path d="M242.971 141.013L246.409 146.969H239.532L242.971 141.013Z" fill="#3CA040"/>
<path d="M242.971 90.9205L246.409 96.8766H239.532L242.971 90.9205Z" fill="#3CA040"/>
<path d="M242.971 40.2177L246.409 46.6319H239.532L242.971 40.2177Z" fill="#3CA040"/>
<path d="M242.971 153.23L246.409 159.186H239.532L242.971 153.23Z" fill="#3CA040"/>
<path d="M242.971 103.138L246.409 109.094H239.532L242.971 103.138Z" fill="#3CA040"/>
<path d="M242.971 53.046L246.409 59.0021H239.532L242.971 53.046Z" fill="#3CA040"/>
<path d="M242.971 128.184L246.409 134.14H239.532L242.971 128.184Z" fill="#3CA040"/>
<path d="M242.971 78.092L246.409 84.0481H239.532L242.971 78.092Z" fill="#3CA040"/>
<path d="M242.971 28L246.409 33.9561H239.532L242.971 28Z" fill="#3CA040"/>
<path d="M285.427 166.059L289.13 172.015H281.724L285.427 166.059Z" fill="#3CA040"/>
<path d="M285.427 115.967L289.13 121.923H281.724L285.427 115.967Z" fill="#3CA040"/>
<path d="M285.427 65.8745L289.13 71.8306H281.724L285.427 65.8745Z" fill="#3CA040"/>
<path d="M285.427 141.013L289.13 146.969H281.724L285.427 141.013Z" fill="#3CA040"/>
<path d="M285.427 90.9205L289.13 96.8766H281.724L285.427 90.9205Z" fill="#3CA040"/>
<path d="M285.427 40.2177L289.13 46.6319H281.724L285.427 40.2177Z" fill="#3CA040"/>
<path d="M285.427 153.23L289.13 159.186H281.724L285.427 153.23Z" fill="#3CA040"/>
<path d="M285.427 103.138L289.13 109.094H281.724L285.427 103.138Z" fill="#3CA040"/>
<path d="M285.427 53.046L289.13 59.0021H281.724L285.427 53.046Z" fill="#3CA040"/>
<path d="M285.427 128.184L289.13 134.14H281.724L285.427 128.184Z" fill="#3CA040"/>
<path d="M285.427 78.092L289.13 84.0481H281.724L285.427 78.092Z" fill="#3CA040"/>
<path d="M285.427 28L289.13 33.9561H281.724L285.427 28Z" fill="#3CA040"/>
<path d="M18.3264 166.059L22.0297 172.015H14.6232L18.3264 166.059Z" fill="#3CA040"/>
<path d="M18.3264 115.967L22.0297 121.923H14.6232L18.3264 115.967Z" fill="#3CA040"/>
<path d="M18.3264 65.8745L22.0297 71.8306H14.6232L18.3264 65.8745Z" fill="#3CA040"/>
<path d="M18.3264 141.013L22.0297 146.969H14.6232L18.3264 141.013Z" fill="#3CA040"/>
<path d="M18.3264 90.9205L22.0297 96.8766H14.6232L18.3264 90.9205Z" fill="#3CA040"/>
<path d="M18.3264 40.2177L22.0297 46.6319H14.6232L18.3264 40.2177Z" fill="#3CA040"/>
<path d="M18.3264 153.23L22.0297 159.186H14.6232L18.3264 153.23Z" fill="#3CA040"/>
<path d="M18.3264 103.138L22.0297 109.094H14.6232L18.3264 103.138Z" fill="#3CA040"/>
<path d="M18.3264 53.046L22.0297 59.0021H14.6232L18.3264 53.046Z" fill="#3CA040"/>
<path d="M18.3264 128.184L22.0297 134.14H14.6232L18.3264 128.184Z" fill="#3CA040"/>
<path d="M18.3264 78.092L22.0297 84.0481H14.6232L18.3264 78.092Z" fill="#3CA040"/>
<path d="M18.3264 28L22.0297 33.9561H14.6232L18.3264 28Z" fill="#3CA040"/>
<path d="M32.3767 166.059L36.08 172.015H28.6735L32.3767 166.059Z" fill="#3CA040"/>
<path d="M32.3767 115.967L36.08 121.923H28.6735L32.3767 115.967Z" fill="#3CA040"/>
<path d="M32.3767 65.8745L36.08 71.8306H28.6735L32.3767 65.8745Z" fill="#3CA040"/>
<path d="M32.3767 141.013L36.08 146.969H28.6735L32.3767 141.013Z" fill="#3CA040"/>
<path d="M32.3767 90.9205L36.08 96.8766H28.6735L32.3767 90.9205Z" fill="#3CA040"/>
<path d="M32.3767 40.2177L36.08 46.6319H28.6735L32.3767 40.2177Z" fill="#3CA040"/>
<path d="M32.3767 153.23L36.08 159.186H28.6735L32.3767 153.23Z" fill="#3CA040"/>
<path d="M32.3767 103.138L36.08 109.094H28.6735L32.3767 103.138Z" fill="#3CA040"/>
<path d="M32.3767 53.046L36.08 59.0021H28.6735L32.3767 53.046Z" fill="#3CA040"/>
<path d="M32.3767 128.184L36.08 134.14H28.6735L32.3767 128.184Z" fill="#3CA040"/>
<path d="M32.3767 78.092L36.08 84.0481H28.6735L32.3767 78.092Z" fill="#3CA040"/>
<path d="M32.3767 28L36.08 33.9561H28.6735L32.3767 28Z" fill="#3CA040"/>
<path d="M3.97071 166.059L7.40945 172.015H0.531974L3.97071 166.059Z" fill="#3CA040"/>
<path d="M3.97071 115.967L7.40945 121.923H0.531974L3.97071 115.967Z" fill="#3CA040"/>
<path d="M3.97071 65.8745L7.40945 71.8306H0.531974L3.97071 65.8745Z" fill="#3CA040"/>
<path d="M3.97071 141.013L7.40945 146.969H0.531974L3.97071 141.013Z" fill="#3CA040"/>
<path d="M3.97071 90.9205L7.40945 96.8766H0.531974L3.97071 90.9205Z" fill="#3CA040"/>
<path d="M3.97071 40.2177L7.40945 46.6319H0.531974L3.97071 40.2177Z" fill="#3CA040"/>
<path d="M3.97071 153.23L7.40945 159.186H0.531974L3.97071 153.23Z" fill="#3CA040"/>
<path d="M3.97071 103.138L7.40945 109.094H0.531974L3.97071 103.138Z" fill="#3CA040"/>
<path d="M3.97071 53.046L7.40945 59.0021H0.531974L3.97071 53.046Z" fill="#3CA040"/>
<path d="M3.97071 128.184L7.40945 134.14H0.531974L3.97071 128.184Z" fill="#3CA040"/>
<path d="M3.97071 78.092L7.40945 84.0481H0.531974L3.97071 78.092Z" fill="#3CA040"/>
<path d="M3.97071 28L7.40945 33.9561H0.531974L3.97071 28Z" fill="#3CA040"/>
<path d="M46.427 166.059L50.1303 172.015H42.7238L46.427 166.059Z" fill="#3CA040"/>
<path d="M46.427 115.967L50.1303 121.923H42.7238L46.427 115.967Z" fill="#3CA040"/>
<path d="M46.427 65.8745L50.1303 71.8306H42.7238L46.427 65.8745Z" fill="#3CA040"/>
<path d="M46.427 141.013L50.1303 146.969H42.7238L46.427 141.013Z" fill="#3CA040"/>
<path d="M46.427 90.9205L50.1303 96.8766H42.7238L46.427 90.9205Z" fill="#3CA040"/>
<path d="M46.427 40.2177L50.1303 46.6319H42.7238L46.427 40.2177Z" fill="#3CA040"/>
<path d="M46.427 153.23L50.1303 159.186H42.7238L46.427 153.23Z" fill="#3CA040"/>
<path d="M46.427 103.138L50.1303 109.094H42.7238L46.427 103.138Z" fill="#3CA040"/>
<path d="M46.427 53.046L50.1303 59.0021H42.7238L46.427 53.046Z" fill="#3CA040"/>
<path d="M46.427 128.184L50.1303 134.14H42.7238L46.427 128.184Z" fill="#3CA040"/>
<path d="M46.427 78.092L50.1303 84.0481H42.7238L46.427 78.092Z" fill="#3CA040"/>
<path d="M46.427 28L50.1303 33.9561H42.7238L46.427 28Z" fill="#3CA040"/>
<rect x="140" y="33" width="40" height="40" rx="5" fill="#D9D9D9"/>
<rect x="184" y="33" width="40" height="40" rx="5" fill="#D9D9D9"/>
<rect x="140" y="127" width="84" height="40" rx="5" fill="#D9D9D9"/>
</svg>
